<svg width="122.88" height="122.88" xmlns="http://www.w3.org/2000/svg" data-name="Layer 1">
 <title>email-round-line-color</title>

 <g>
  <title>Layer 1</title>
  <path id="svg_1" d="m33.29,38.65l56.3,0a3.65,3.65 0 0 1 3.64,3.64l0,38.71a3.57,3.57 0 0 1 -0.63,2a1.46,1.46 0 0 1 -0.34,0.52a1.51,1.51 0 0 1 -0.34,0.24a3.7,3.7 0 0 1 -2.33,0.85l-56.3,0a3.63,3.63 0 0 1 -2.57,-1.07a3.67,3.67 0 0 1 -1.07,-2.54l0,-38.71a3.65,3.65 0 0 1 3.64,-3.64zm-0.85,40.79l19.73,-19.77l-19.73,-16.09l0,35.86zm21.9,-18l-20.34,20.39l54.7,0l-19.43,-20.39l-6.41,5.46l0,0a1.39,1.39 0 0 1 -1.79,0l-6.73,-5.48l0,0.02zm17,-1.81l19,20l0,-36.22l-19,16.22zm-37.1,-18.19l27.69,22.56l26.51,-22.56l-54.2,0z" fill="#fff"/>
 </g>
</svg>