<svg width="3333" height="3333" xmlns="http://www.w3.org/2000/svg" clip-rule="evenodd" fill-rule="evenodd" image-rendering="optimizeQuality" text-rendering="geometricPrecision" shape-rendering="geometricPrecision">

 <g>
  <title>Layer 1</title>
  <path id="svg_1" d="m1662,1174c285,0 516,231 516,516s-231,516 -516,516s-516,-231 -516,-516s231,-516 516,-516zm-385,-421l780,0c293,0 532,237 532,525l0,778c0,289 -239,525 -532,525l-780,0c-293,0 -532,-236 -532,-525l0,-778c0,-289 240,-525 532,-525zm884,349c46,0 84,37 84,84c0,46 -37,84 -84,84c-46,0 -84,-37 -84,-84c0,-46 37,-84 84,-84zm-820,-200l652,0c245,0 445,199 445,443l0,656c0,244 -200,443 -445,443l-652,0c-245,0 -445,-199 -445,-443l0,-656c0,-244 200,-443 445,-443zm321,445c188,0 341,153 341,341s-153,341 -341,341c-189,0 -341,-153 -341,-341s153,-341 341,-341z" fill="#fff"/>
 </g>
</svg>